Patient4_TMGait_0pt6_02_right_25_GRF.mot
version=1
nRows=52
nColumns=19
inDegrees=no
endheader
time	F1x	F1y	F1z	M1x	M1y	M1z	F2x	F2y	F2z	M2x	M2y	M2z	EC1x	EC1y	EC1z	EC2x	EC2y	EC2z
29.98	-14.2187	777.8205	58.9914	-248.1287	-60.2614	786.2491	0.59419	12.8281	-11.6032	7.1669	9.9265	17.4183	-0.0592	0.0182	-0.0073	-0.0462	0.0165	0.9585
29.9921	-7.6363	766.5519	58.9281	-243.9159	-58.6208	778.2926	0.13291	9.8281	-7.8868	5.3742	6.8626	13.1628	-0.0592	0.0182	-0.0073	-0.0462	0.0165	0.9585
30.0041	-1.7637	753.7085	58.8438	-239.0103	-57.0877	767.7476	-0.26051	7.3149	-4.7185	3.8641	4.2564	9.5953	-0.0592	0.0182	-0.0073	-0.0462	0.0165	0.9585
30.0162	3.0822	740.1471	58.7672	-233.7222	-55.7522	755.295	-0.55311	5.4276	-2.2999	2.7277	2.2732	6.9095	-0.0592	0.0182	-0.0073	-0.0462	0.0165	0.9585
30.0283	6.8802	726.7545	58.7238	-228.3909	-54.6466	741.8765	-0.75351	4.1583	-0.62527	1.962	0.91025	5.0994	-0.0592	0.0182	-0.0073	-0.0462	0.0165	0.9585
30.0404	9.7508	714.3078	58.7271	-223.3244	-53.7647	728.4225	-0.87914	3.4103	0.40673	1.5085	0.083416	4.0265	-0.0592	0.0182	-0.0073	-0.0462	0.0165	0.9585
30.0524	11.91	703.4215	58.7835	-218.7693	-53.0716	715.7366	-0.96102	3.0473	0.94663	1.284	-0.32962	3.5003	-0.0592	0.0182	-0.0073	-0.0462	0.0165	0.9585
30.0645	13.6078	694.5587	58.9085	-214.9091	-52.5272	704.4514	-1.0295	2.9006	1.1381	1.1946	-0.4452	3.2916	-0.0592	0.0182	-0.0073	-0.0462	0.0165	0.9585
30.0766	15.0651	688.0622	59.1156	-211.8742	-52.0904	695.0447	-1.1	2.8096	1.107	1.1505	-0.36608	3.1852	-0.0592	0.0182	-0.0073	-0.0462	0.0165	0.9585
30.0886	16.4994	684.1745	59.4176	-209.7472	-51.7226	687.8524	-1.1749	2.6035	0.95073	1.0624	-0.17358	2.9579	-0.0592	0.0182	-0.0073	-0.0462	0.0165	0.9585
30.1007	18.1013	683.0393	59.813	-208.5605	-51.3761	683.0817	-1.2483	2.1149	0.73917	0.84828	0.068148	2.3878	-0.0592	0.0182	-0.0073	-0.0462	0.0165	0.9585
30.1128	20.0343	684.6575	60.2909	-208.2911	-50.9973	680.7554	-1.289	1.2046	0.52483	0.43973	0.29816	1.2882	-0.0592	0.0182	-0.0073	-0.0462	0.0165	0.9585
30.1249	22.4346	688.8754	60.8443	-208.8573	-50.5418	680.735	-1.249	-0.25092	0.34108	-0.21782	0.45595	-0.50053	-0.0592	0.0182	-0.0073	-0.0462	0.0165	0.9585
30.1369	25.3943	695.3459	61.4813	-210.1142	-49.9879	682.6713	-1.0618	-2.2995	0.21733	-1.1443	0.4736	-3.0356	-0.0592	0.0182	-0.0073	-0.0462	0.0165	0.9585
30.149	28.9075	703.5499	62.2301	-211.8692	-49.3526	686.0725	-0.63755	-4.8558	0.16874	-2.2992	0.288	-6.219	-0.0592	0.0182	-0.0073	-0.0462	0.0165	0.9585
30.1611	32.9185	712.8403	63.126	-213.9031	-48.678	690.3642	0.10414	-7.6371	0.23347	-3.549	-0.18432	-9.7028	-0.0592	0.0182	-0.0073	-0.0462	0.0165	0.9585
30.1731	37.3094	722.5046	64.1939	-215.9961	-48.0175	694.9556	1.2549	-10.0477	0.44563	-4.6223	-1.0211	-12.7568	-0.0592	0.0182	-0.0073	-0.0462	0.0165	0.9585
30.1852	41.9602	731.8607	65.4199	-217.9621	-47.3995	699.2819	2.8476	-11.0959	0.85584	-5.0687	-2.2941	-14.1485	-0.0592	0.0182	-0.0073	-0.0462	0.0165	0.9585
30.1973	46.7585	740.3399	66.756	-219.6708	-46.8317	702.912	4.8527	-9.3166	1.5064	-4.2202	-4.0347	-12.0512	-0.0592	0.0182	-0.0073	-0.0462	0.0165	0.9585
30.2094	51.6245	747.5085	68.1218	-221.0565	-46.2887	705.547	7.101	-2.7147	2.4243	-1.1751	-6.1899	-3.9676	-0.0592	0.0182	-0.0073	-0.0462	0.0165	0.9585
30.2214	56.478	753.0482	69.4288	-222.105	-45.7395	707.0103	9.222	11.1353	3.5974	5.1602	-8.5582	13.1501	-0.0592	0.0182	-0.0073	-0.0462	0.0165	0.9585
30.2335	61.2761	756.6078	70.579	-222.7997	-45.1337	707.0993	10.5602	34.8392	4.9323	15.9531	-10.7005	42.5955	-0.0592	0.0182	-0.0073	-0.0462	0.0165	0.9585
30.2456	65.9698	757.6026	71.4461	-223.0461	-44.3924	705.3938	10.1086	70.6491	6.2189	32.2038	-11.8696	87.246	-0.0592	0.0182	-0.0073	-0.0462	0.0165	0.9585
30.2576	70.4682	754.9911	71.8442	-222.5903	-43.3788	701.0191	6.4227	119.6117	7.0779	54.3586	-10.9215	148.5047	-0.0592	0.0182	-0.0073	-0.0462	0.0165	0.9585
30.2697	74.6201	747.0918	71.4912	-220.9372	-41.8636	692.456	-2.2717	180.5488	7.0292	81.8483	-6.4686	225.0086	-0.0592	0.0182	-0.0073	-0.0462	0.0165	0.9585
30.2818	78.1365	731.5647	69.9731	-217.3098	-39.5049	677.4572	-16.7081	249.4991	5.4826	112.8426	2.5206	311.8734	-0.0592	0.0182	-0.0073	-0.0462	0.0165	0.9585
30.2939	80.5887	705.6143	66.8189	-210.6911	-35.916	653.1992	-35.0179	319.7902	1.9731	144.2958	15.7246	400.6326	-0.0592	0.0182	-0.0073	-0.0462	0.0165	0.9585
30.3059	81.5201	666.9951	61.7778	-200.1972	-30.9457	617.3571	-53.4969	382.7249	-3.4817	172.3286	31.3152	479.9811	-0.0592	0.0182	-0.0073	-0.0462	0.0165	0.9585
30.318	80.4808	614.9926	55.0303	-185.4564	-24.9003	569.0974	-68.6347	431.3631	-10.2223	193.867	46.7549	540.7591	-0.0592	0.0182	-0.0073	-0.0462	0.0165	0.9585
30.3301	77.1088	551.2037	47.1884	-166.9069	-18.5176	509.9195	-78.7113	463.9179	-17.4668	208.1623	60.242	580.4171	-0.0592	0.0182	-0.0073	-0.0462	0.0165	0.9585
30.3421	71.5141	479.366	39.1022	-145.7514	-12.6024	443.4678	-83.9509	484.1236	-24.2038	216.9108	70.6837	603.6292	-0.0592	0.0182	-0.0073	-0.0462	0.0165	0.9585
30.3542	64.1678	404.3796	31.5637	-123.5902	-7.7686	374.4844	-85.3747	497.8137	-29.6553	222.7809	77.6883	617.789	-0.0592	0.0182	-0.0073	-0.0462	0.0165	0.9585
30.3663	55.8109	331.217	25.107	-102.021	-4.2875	307.6387	-84.3255	510.4741	-33.5999	228.2603	81.6404	629.905	-0.0592	0.0182	-0.0073	-0.0462	0.0165	0.9585
30.3784	47.2712	264.0448	19.9454	-82.3428	-2.0917	246.704	-81.7558	525.8696	-36.1889	235.0462	83.2517	644.7039	-0.0592	0.0182	-0.0073	-0.0462	0.0165	0.9585
30.3904	39.3326	205.6596	16.0637	-65.3821	-0.90889	194.0463	-78.4747	545.8342	-37.999	243.9364	83.5837	664.5774	-0.0592	0.0182	-0.0073	-0.0462	0.0165	0.9585
30.4025	32.4827	157.2756	13.2593	-51.445	-0.38648	150.5654	-74.9168	570.5447	-39.5035	254.982	83.4505	689.8361	-0.0592	0.0182	-0.0073	-0.0462	0.0165	0.9585
30.4146	26.8502	118.6914	11.2126	-40.3951	-0.17645	115.895	-71.4186	598.9947	-41.2521	267.6788	83.6239	719.4088	-0.0592	0.0182	-0.0073	-0.0462	0.0165	0.9585
30.4266	22.3156	88.8422	9.619	-31.8421	-0.032799	88.9565	-68.1719	629.3843	-43.3965	281.1972	84.3839	751.2143	-0.0592	0.0182	-0.0073	-0.0462	0.0165	0.9585
30.4387	18.7376	66.2889	8.2577	-25.3036	0.19477	68.4013	-65.3662	659.8108	-46.0173	294.6566	85.8733	783.0721	-0.0592	0.0182	-0.0073	-0.0462	0.0165	0.9585
30.4508	16.0336	49.5869	6.9879	-20.3247	0.58885	52.9276	-63.0255	688.5924	-48.8216	307.2963	87.778	813.0262	-0.0592	0.0182	-0.0073	-0.0462	0.0165	0.9585
30.4629	14.0959	37.4898	5.7622	-16.5341	1.1379	41.4402	-61.1083	714.3613	-51.5292	318.5054	89.7377	839.5273	-0.0592	0.0182	-0.0073	-0.0462	0.0165	0.9585
30.4749	12.717	28.9122	4.5922	-13.6276	1.7511	32.9769	-59.4622	736.0667	-53.7619	327.8233	91.2557	861.3736	-0.0592	0.0182	-0.0073	-0.0462	0.0165	0.9585
30.487	11.5504	22.8631	3.5321	-11.3339	2.2722	26.7077	-57.9218	752.9756	-55.424	334.9231	92.13	877.7425	-0.0592	0.0182	-0.0073	-0.0462	0.0165	0.9585
30.4991	10.4098	18.4089	2.6034	-9.4042	2.6281	21.8032	-56.347	764.7308	-56.5078	339.6511	92.2866	888.2334	-0.0592	0.0182	-0.0073	-0.0462	0.0165	0.9585
30.5111	9.1221	14.8738	1.8172	-7.6699	2.7601	17.7285	-54.584	771.5175	-57.1782	342.0838	91.84	893.0674	-0.0592	0.0182	-0.0073	-0.0462	0.0165	0.9585
30.5232	7.6529	11.8419	1.1842	-6.0519	2.6442	14.1186	-52.5578	773.974	-57.4811	342.5084	90.8189	892.9853	-0.0592	0.0182	-0.0073	-0.0462	0.0165	0.9585
30.5353	5.9611	9.1631	0.69708	-4.5538	2.2851	10.9113	-50.2433	773.0537	-57.4766	341.3527	89.289	889.0812	-0.0592	0.0182	-0.0073	-0.0462	0.0165	0.9585
30.5474	4.176	6.8033	0.35192	-3.213	1.7426	8.0953	-47.6961	769.8936	-57.1458	339.1188	87.277	882.664	-0.0592	0.0182	-0.0073	-0.0462	0.0165	0.9585
30.5594	2.4087	4.8341	0.11857	-2.0851	1.1085	5.7903	-45.0337	765.5719	-56.5483	336.2878	84.9206	874.963	-0.0592	0.0182	-0.0073	-0.0462	0.0165	0.9585
30.5715	0.84805	3.2917	-0.015122	-1.2016	0.47741	4.01	-42.4148	761.0485	-55.763	333.2796	82.3947	867.069	-0.0592	0.0182	-0.0073	-0.0462	0.0165	0.9585
30.5836	-0.42011	2.2027	-0.086178	-0.57239	-0.068488	2.7858	-39.9466	757.0233	-54.9481	330.4036	79.9296	859.7493	-0.0592	0.0182	-0.0073	-0.0462	0.0165	0.9585
30.5956	-1.3393	1.5217	-0.10018	-0.17374	-0.5002	2.0342	-37.6941	753.9478	-54.2493	327.8676	77.7128	853.4928	-0.0592	0.0182	-0.0073	-0.0462	0.0165	0.9585
